<?xml version="1.0" encoding="utf-8"?>
<svg version="1.1" viewBox="0 0 880 280" xmlns="http://www.w3.org/2000/svg">
  <defs>
    <filter id="sh">
      <feGaussianBlur in="SourceAlpha" stdDeviation="4"/>
      <feOffset dx="2" dy="3"/>
      <feBlend in="SourceGraphic"/>
    </filter>
  </defs>
  <polygon points="865,245 856,242 856,248"/>
  <line x1="60" y1="245" x2="865" y2="245" style="stroke:#000000;stroke-width:1"/>
  <polygon points="60,12 57,21 63,21"/>
  <line x1="60" y1="245" x2="60" y2="12" style="stroke:#000000;stroke-width:1"/>
  <text x="830" y="267" font-family="Arial" font-size="20" style="white-space: pre;">Time<tspan x="155" y="267">0</tspan><tspan x="555" y="267">1</tspan><tspan x="2" y="20">Layer</tspan><tspan x="2" y="185">S0T0</tspan></text>
  <rect x="80" y="130" width="160" height="90" style="fill:#cfe2f3;stroke-width:3;stroke:#000000" filter="url(#sh)"/>
  <rect x="480" y="130" width="160" height="90" style="fill:#cfe2f3;stroke-width:3;stroke:#000000" filter="url(#sh)"/>
  <polygon points="480,175 471,172 471,178"/>
  <line x1="240" y1="175" x2="480" y2="175" style="stroke:#000000;stroke-width:1"/>
  <polygon points="865,175 856,172 856,178"/>
  <line x1="640" y1="175" x2="865" y2="175" style="stroke:#000000;stroke-width:1;stroke-dasharray:5,5"/>
  <rect x="460" y="0" width="390" height="235" style="fill:none;stroke-width:2;stroke:#7f7f7f;stroke-dasharray:5,5"/>
  <text x="462" y="22" font-family="Arial" font-size="20" style="white-space: pre;">Repeat</text>
  <text style="white-space: pre; fill: rgb(51, 51, 51); font-family: Arial, sans-serif; font-size: 18.6px;" x="360.88" y="79.102"> </text>
</svg>