<svg version="1.1" viewBox="0 0 1680 360" xmlns:xlink="http://www.w3.org/1999/xlink" xmlns="http://www.w3.org/2000/svg"><defs><filter id="sh"><feGaussianBlur in="SourceAlpha" stdDeviation="4"/><feOffset dx="2" dy="3"/><feBlend in="SourceGraphic"/></filter></defs><polygon points="1665,345 1656,342 1656,348"/><line x1="60" y1="345" x2="1665" y2="345" style="stroke:#000000;stroke-width:1"/><polygon points="60,12 57,21 63,21"/><line x1="60" y1="345" x2="60" y2="12" style="stroke:#000000;stroke-width:1"/><text x="1630" y="367" font-family="Arial" font-size="20">Time<tspan x="155" y="367">0</tspan><tspan x="355" y="367">1</tspan><tspan x="555" y="367">2</tspan><tspan x="755" y="367">3</tspan><tspan x="955" y="367">4</tspan><tspan x="1155" y="367">5</tspan><tspan x="1355" y="367">6</tspan><tspan x="1555" y="367">7</tspan><tspan x="2" y="20">Layer</tspan><tspan x="2" y="285">S0T0</tspan><tspan x="2" y="185">S0T1</tspan><tspan x="2" y="85">S0T2</tspan></text><rect x="80" y="230" width="160" height="90" style="fill:#cfe2f3;stroke-width:3;stroke:#000000" filter="url(#sh)"/><rect x="280" y="30" width="160" height="90" style="fill:#cfe2f3;stroke-width:3;stroke:#000000" filter="url(#sh)"/><polygon points="280,75 271,72 271,78" transform="rotate(-78.7 280 75)"/><line x1="240" y1="275" x2="280" y2="75" style="stroke:#000000;stroke-width:1"/><rect x="480" y="130" width="160" height="90" style="fill:#cfe2f3;stroke-width:3;stroke:#000000" filter="url(#sh)"/><polygon points="480,175 471,172 471,178" transform="rotate(-22.6 480 175)"/><line x1="240" y1="275" x2="480" y2="175" style="stroke:#000000;stroke-width:1"/><rect x="680" y="30" width="160" height="90" style="fill:#cfe2f3;stroke-width:3;stroke:#000000" filter="url(#sh)"/><polygon points="680,75 671,72 671,78" transform="rotate(-68.2 680 75)"/><line x1="640" y1="175" x2="680" y2="75" style="stroke:#000000;stroke-width:1"/><rect x="880" y="230" width="160" height="90" style="fill:#cfe2f3;stroke-width:3;stroke:#000000" filter="url(#sh)"/><polygon points="880,275 871,272 871,278"/><line x1="240" y1="275" x2="880" y2="275" style="stroke:#000000;stroke-width:1"/><rect x="1080" y="30" width="160" height="90" style="fill:#cfe2f3;stroke-width:3;stroke:#000000" filter="url(#sh)"/><polygon points="1080,75 1071,72 1071,78" transform="rotate(-78.7 1080 75)"/><line x1="1040" y1="275" x2="1080" y2="75" style="stroke:#000000;stroke-width:1"/><rect x="1280" y="130" width="160" height="90" style="fill:#cfe2f3;stroke-width:3;stroke:#000000" filter="url(#sh)"/><polygon points="1280,175 1271,172 1271,178" transform="rotate(-22.6 1280 175)"/><line x1="1040" y1="275" x2="1280" y2="175" style="stroke:#000000;stroke-width:1"/><rect x="1480" y="30" width="160" height="90" style="fill:#cfe2f3;stroke-width:3;stroke:#000000" filter="url(#sh)"/><polygon points="1480,75 1471,72 1471,78" transform="rotate(-68.2 1480 75)"/><line x1="1440" y1="175" x2="1480" y2="75" style="stroke:#000000;stroke-width:1"/><polygon points="1665,275 1656,272 1656,278"/><line x1="1040" y1="275" x2="1665" y2="275" style="stroke:#000000;stroke-width:1;stroke-dasharray:5,5"/><rect x="860" y="0" width="790" height="335" style="fill:none;stroke-width:2;stroke:#7f7f7f;stroke-dasharray:5,5"/><text x="862" y="22" font-family="Arial" font-size="20">Repeat</text></svg>