<svg version="1.1" viewBox="0 0 880 422" xmlns:xlink="http://www.w3.org/1999/xlink" xmlns="http://www.w3.org/2000/svg"><defs><filter id="sh"><feGaussianBlur in="SourceAlpha" stdDeviation="4"/><feOffset dx="2" dy="3"/><feBlend in="SourceGraphic"/></filter></defs><polygon points="865,387 856,384 856,390"/><line x1="60" y1="387" x2="865" y2="387" style="stroke:#000000;stroke-width:1"/><polygon points="60,12 57,21 63,21"/><line x1="60" y1="387" x2="60" y2="12" style="stroke:#000000;stroke-width:1"/><text x="830" y="409" font-family="Arial" font-size="20">Time<tspan x="155" y="409">0</tspan><tspan x="355" y="409">1</tspan><tspan x="555" y="409">2</tspan><tspan x="755" y="409">3</tspan><tspan x="2" y="20">Layer</tspan><tspan x="2" y="344">S0T0</tspan><tspan x="2" y="278">S0T1</tspan><tspan x="2" y="185">S1T0</tspan><tspan x="2" y="85">S1T1</tspan></text><rect x="107" y="304" width="106" height="60" style="fill:#cfe2f3;stroke-width:3;stroke:#000000" filter="url(#sh)"/><rect x="80" y="130" width="160" height="90" style="fill:#cfe2f3;stroke-width:3;stroke:#674ea7" filter="url(#sh)"/><polygon points="160,222 157,231 163,231"/><line x1="160" y1="304" x2="160" y2="222" style="stroke:#000000;stroke-width:1"/><rect x="307" y="304" width="106" height="60" style="fill:#cfe2f3;stroke-width:3;stroke:#000000" filter="url(#sh)"/><polygon points="307,334 298,331 298,337"/><line x1="213" y1="334" x2="307" y2="334" style="stroke:#000000;stroke-width:1"/><rect x="280" y="30" width="160" height="90" style="fill:#cfe2f3;stroke-width:3;stroke:#674ea7" filter="url(#sh)"/><polygon points="280,75 271,72 271,78" transform="rotate(-68.2 280 75)"/><line x1="240" y1="175" x2="280" y2="75" style="stroke:#000000;stroke-width:1"/><rect x="507" y="238" width="106" height="60" style="fill:#cfe2f3;stroke-width:3;stroke:#000000" filter="url(#sh)"/><polygon points="507,268 498,265 498,271" transform="rotate(-35.1 507 268)"/><line x1="413" y1="334" x2="507" y2="268" style="stroke:#000000;stroke-width:1"/><rect x="480" y="130" width="160" height="90" style="fill:#cfe2f3;stroke-width:3;stroke:#674ea7" filter="url(#sh)"/><polygon points="480,175 471,172 471,178"/><line x1="240" y1="175" x2="480" y2="175" style="stroke:#000000;stroke-width:1"/><rect x="707" y="304" width="106" height="60" style="fill:#cfe2f3;stroke-width:3;stroke:#000000" filter="url(#sh)"/><polygon points="707,334 698,331 698,337"/><line x1="413" y1="334" x2="707" y2="334" style="stroke:#000000;stroke-width:1"/><rect x="680" y="30" width="160" height="90" style="fill:#cfe2f3;stroke-width:3;stroke:#674ea7" filter="url(#sh)"/><polygon points="680,75 671,72 671,78" transform="rotate(-68.2 680 75)"/><line x1="640" y1="175" x2="680" y2="75" style="stroke:#000000;stroke-width:1"/><polygon points="865,268 856,265 856,271" transform="rotate(-51.8 865 268)"/><line x1="813" y1="334" x2="865" y2="268" style="stroke:#000000;stroke-width:1;stroke-dasharray:5,5"/><polygon points="865,175 856,172 856,178"/><line x1="640" y1="175" x2="865" y2="175" style="stroke:#000000;stroke-width:1;stroke-dasharray:5,5"/><polygon points="865,334 856,331 856,337"/><line x1="813" y1="334" x2="865" y2="334" style="stroke:#000000;stroke-width:1;stroke-dasharray:5,5"/><rect x="460" y="0" width="390" height="377" style="fill:none;stroke-width:2;stroke:#7f7f7f;stroke-dasharray:5,5"/><text x="462" y="22" font-family="Arial" font-size="20">Repeat</text></svg>