<svg version="1.1" viewBox="0 0 880 290" xmlns:xlink="http://www.w3.org/1999/xlink" xmlns="http://www.w3.org/2000/svg"><defs><filter id="sh"><feGaussianBlur in="SourceAlpha" stdDeviation="4"/><feOffset dx="2" dy="3"/><feBlend in="SourceGraphic"/></filter></defs><polygon points="865,275 856,272 856,278"/><line x1="60" y1="275" x2="865" y2="275" style="stroke:#000000;stroke-width:1"/><polygon points="60,12 57,21 63,21"/><line x1="60" y1="275" x2="60" y2="12" style="stroke:#000000;stroke-width:1"/><text x="830" y="297" font-family="Arial" font-size="20">Time<tspan x="155" y="297">0</tspan><tspan x="355" y="297">1</tspan><tspan x="555" y="297">2</tspan><tspan x="755" y="297">3</tspan><tspan x="2" y="20">Layer</tspan><tspan x="2" y="243">S0T0</tspan><tspan x="2" y="178">S1T0</tspan><tspan x="2" y="85">S2T0</tspan></text><rect x="125" y="213" width="70" height="40" style="fill:#cfe2f3;stroke-width:3;stroke:#000000" filter="url(#sh)"/><rect x="107" y="138" width="106" height="60" style="fill:#cfe2f3;stroke-width:3;stroke:#674ea7" filter="url(#sh)"/><rect x="80" y="30" width="160" height="90" style="fill:#cfe2f3;stroke-width:3;stroke:#38761d" filter="url(#sh)"/><rect x="325" y="213" width="70" height="40" style="fill:#cfe2f3;stroke-width:3;stroke:#000000" filter="url(#sh)"/><polygon points="325,233 316,230 316,236"/><line x1="195" y1="233" x2="325" y2="233" style="stroke:#000000;stroke-width:1"/><rect x="307" y="138" width="106" height="60" style="fill:#cfe2f3;stroke-width:3;stroke:#674ea7" filter="url(#sh)"/><polygon points="307,168 298,165 298,171"/><line x1="213" y1="168" x2="307" y2="168" style="stroke:#000000;stroke-width:1"/><rect x="280" y="30" width="160" height="90" style="fill:#cfe2f3;stroke-width:3;stroke:#38761d" filter="url(#sh)"/><polygon points="280,75 271,72 271,78"/><line x1="240" y1="75" x2="280" y2="75" style="stroke:#000000;stroke-width:1"/><rect x="525" y="213" width="70" height="40" style="fill:#cfe2f3;stroke-width:3;stroke:#000000" filter="url(#sh)"/><polygon points="525,233 516,230 516,236"/><line x1="395" y1="233" x2="525" y2="233" style="stroke:#000000;stroke-width:1"/><rect x="507" y="138" width="106" height="60" style="fill:#cfe2f3;stroke-width:3;stroke:#674ea7" filter="url(#sh)"/><polygon points="507,168 498,165 498,171"/><line x1="413" y1="168" x2="507" y2="168" style="stroke:#000000;stroke-width:1"/><rect x="480" y="30" width="160" height="90" style="fill:#cfe2f3;stroke-width:3;stroke:#38761d" filter="url(#sh)"/><polygon points="480,75 471,72 471,78"/><line x1="440" y1="75" x2="480" y2="75" style="stroke:#000000;stroke-width:1"/><rect x="725" y="213" width="70" height="40" style="fill:#cfe2f3;stroke-width:3;stroke:#000000" filter="url(#sh)"/><polygon points="725,233 716,230 716,236"/><line x1="595" y1="233" x2="725" y2="233" style="stroke:#000000;stroke-width:1"/><rect x="707" y="138" width="106" height="60" style="fill:#cfe2f3;stroke-width:3;stroke:#674ea7" filter="url(#sh)"/><polygon points="707,168 698,165 698,171"/><line x1="613" y1="168" x2="707" y2="168" style="stroke:#000000;stroke-width:1"/><rect x="680" y="30" width="160" height="90" style="fill:#cfe2f3;stroke-width:3;stroke:#38761d" filter="url(#sh)"/><polygon points="680,75 671,72 671,78"/><line x1="640" y1="75" x2="680" y2="75" style="stroke:#000000;stroke-width:1"/><polygon points="865,233 856,230 856,236"/><line x1="795" y1="233" x2="865" y2="233" style="stroke:#000000;stroke-width:1;stroke-dasharray:5,5"/><polygon points="865,168 856,165 856,171"/><line x1="813" y1="168" x2="865" y2="168" style="stroke:#000000;stroke-width:1;stroke-dasharray:5,5"/><polygon points="865,75 856,72 856,78"/><line x1="840" y1="75" x2="865" y2="75" style="stroke:#000000;stroke-width:1;stroke-dasharray:5,5"/><rect x="660" y="0" width="190" height="265" style="fill:none;stroke-width:2;stroke:#7f7f7f;stroke-dasharray:5,5"/><text x="662" y="22" font-family="Arial" font-size="20">Repeat</text></svg>