<svg version="1.1" viewBox="0 0 880 500" xmlns:xlink="http://www.w3.org/1999/xlink" xmlns="http://www.w3.org/2000/svg"><defs><filter id="sh"><feGaussianBlur in="SourceAlpha" stdDeviation="4"/><feOffset dx="2" dy="3"/><feBlend in="SourceGraphic"/></filter></defs><polygon points="865,485 856,482 856,488"/><line x1="60" y1="485" x2="865" y2="485" style="stroke:#000000;stroke-width:1"/><polygon points="60,12 57,21 63,21"/><line x1="60" y1="485" x2="60" y2="12" style="stroke:#000000;stroke-width:1"/><text x="830" y="507" font-family="Arial" font-size="20">Time<tspan x="155" y="507">0</tspan><tspan x="355" y="507">1</tspan><tspan x="555" y="507">2</tspan><tspan x="755" y="507">3</tspan><tspan x="2" y="20">Layer</tspan><tspan x="2" y="453">S0T0</tspan><tspan x="2" y="409">S0T1</tspan><tspan x="2" y="344">S1T0</tspan><tspan x="2" y="278">S1T1</tspan><tspan x="2" y="185">S2T0</tspan><tspan x="2" y="85">S2T1</tspan></text><rect x="125" y="423" width="70" height="40" style="fill:#cfe2f3;stroke-width:3;stroke:#000000" filter="url(#sh)"/><rect x="107" y="304" width="106" height="60" style="fill:#cfe2f3;stroke-width:3;stroke:#674ea7" filter="url(#sh)"/><rect x="80" y="130" width="160" height="90" style="fill:#cfe2f3;stroke-width:3;stroke:#38761d" filter="url(#sh)"/><rect x="325" y="379" width="70" height="40" style="fill:#cfe2f3;stroke-width:3;stroke:#000000" filter="url(#sh)"/><polygon points="325,399 316,396 316,402" transform="rotate(-18.7 325 399)"/><line x1="195" y1="443" x2="325" y2="399" style="stroke:#000000;stroke-width:1"/><rect x="307" y="238" width="106" height="60" style="fill:#cfe2f3;stroke-width:3;stroke:#674ea7" filter="url(#sh)"/><polygon points="307,268 298,265 298,271" transform="rotate(-35.1 307 268)"/><line x1="213" y1="334" x2="307" y2="268" style="stroke:#000000;stroke-width:1"/><rect x="280" y="30" width="160" height="90" style="fill:#cfe2f3;stroke-width:3;stroke:#38761d" filter="url(#sh)"/><polygon points="280,75 271,72 271,78" transform="rotate(-68.2 280 75)"/><line x1="240" y1="175" x2="280" y2="75" style="stroke:#000000;stroke-width:1"/><rect x="525" y="423" width="70" height="40" style="fill:#cfe2f3;stroke-width:3;stroke:#000000" filter="url(#sh)"/><polygon points="525,443 516,440 516,446"/><line x1="195" y1="443" x2="525" y2="443" style="stroke:#000000;stroke-width:1"/><rect x="507" y="304" width="106" height="60" style="fill:#cfe2f3;stroke-width:3;stroke:#674ea7" filter="url(#sh)"/><polygon points="507,334 498,331 498,337"/><line x1="213" y1="334" x2="507" y2="334" style="stroke:#000000;stroke-width:1"/><rect x="480" y="130" width="160" height="90" style="fill:#cfe2f3;stroke-width:3;stroke:#38761d" filter="url(#sh)"/><polygon points="480,175 471,172 471,178"/><line x1="240" y1="175" x2="480" y2="175" style="stroke:#000000;stroke-width:1"/><rect x="725" y="379" width="70" height="40" style="fill:#cfe2f3;stroke-width:3;stroke:#000000" filter="url(#sh)"/><polygon points="725,399 716,396 716,402" transform="rotate(-18.7 725 399)"/><line x1="595" y1="443" x2="725" y2="399" style="stroke:#000000;stroke-width:1"/><rect x="707" y="238" width="106" height="60" style="fill:#cfe2f3;stroke-width:3;stroke:#674ea7" filter="url(#sh)"/><polygon points="707,268 698,265 698,271" transform="rotate(-35.1 707 268)"/><line x1="613" y1="334" x2="707" y2="268" style="stroke:#000000;stroke-width:1"/><rect x="680" y="30" width="160" height="90" style="fill:#cfe2f3;stroke-width:3;stroke:#38761d" filter="url(#sh)"/><polygon points="680,75 671,72 671,78" transform="rotate(-68.2 680 75)"/><line x1="640" y1="175" x2="680" y2="75" style="stroke:#000000;stroke-width:1"/><polygon points="865,443 856,440 856,446"/><line x1="595" y1="443" x2="865" y2="443" style="stroke:#000000;stroke-width:1;stroke-dasharray:5,5"/><polygon points="865,334 856,331 856,337"/><line x1="613" y1="334" x2="865" y2="334" style="stroke:#000000;stroke-width:1;stroke-dasharray:5,5"/><polygon points="865,175 856,172 856,178"/><line x1="640" y1="175" x2="865" y2="175" style="stroke:#000000;stroke-width:1;stroke-dasharray:5,5"/><rect x="460" y="0" width="390" height="475" style="fill:none;stroke-width:2;stroke:#7f7f7f;stroke-dasharray:5,5"/><text x="462" y="22" font-family="Arial" font-size="20">Repeat</text></svg>