<svg version="1.1" viewBox="0 0 1680 730" xmlns:xlink="http://www.w3.org/1999/xlink" xmlns="http://www.w3.org/2000/svg"><defs><filter id="sh"><feGaussianBlur in="SourceAlpha" stdDeviation="4"/><feOffset dx="2" dy="3"/><feBlend in="SourceGraphic"/></filter></defs><polygon points="1665,695 1656,692 1656,698"/><line x1="60" y1="695" x2="1665" y2="695" style="stroke:#000000;stroke-width:1"/><polygon points="60,12 57,21 63,21"/><line x1="60" y1="695" x2="60" y2="12" style="stroke:#000000;stroke-width:1"/><text x="1630" y="717" font-family="Arial" font-size="20">Time<tspan x="155" y="717">0</tspan><tspan x="355" y="717">1</tspan><tspan x="555" y="717">2</tspan><tspan x="755" y="717">3</tspan><tspan x="955" y="717">4</tspan><tspan x="1155" y="717">5</tspan><tspan x="1355" y="717">6</tspan><tspan x="1555" y="717">7</tspan><tspan x="2" y="20">Layer</tspan><tspan x="2" y="663">S0T0</tspan><tspan x="2" y="619">S0T1</tspan><tspan x="2" y="575">S0T2</tspan><tspan x="2" y="510">S1T0</tspan><tspan x="2" y="444">S1T1</tspan><tspan x="2" y="378">S1T2</tspan><tspan x="2" y="285">S2T0</tspan><tspan x="2" y="185">S2T1</tspan><tspan x="2" y="85">S2T2</tspan></text><rect x="125" y="633" width="70" height="40" style="fill:#cfe2f3;stroke-width:3;stroke:#000000" filter="url(#sh)"/><rect x="107" y="470" width="106" height="60" style="fill:#cfe2f3;stroke-width:3;stroke:#674ea7" filter="url(#sh)"/><rect x="80" y="230" width="160" height="90" style="fill:#cfe2f3;stroke-width:3;stroke:#38761d" filter="url(#sh)"/><rect x="325" y="545" width="70" height="40" style="fill:#cfe2f3;stroke-width:3;stroke:#000000" filter="url(#sh)"/><polygon points="325,565 316,562 316,568" transform="rotate(-34.1 325 565)"/><line x1="195" y1="653" x2="325" y2="565" style="stroke:#000000;stroke-width:1"/><rect x="307" y="338" width="106" height="60" style="fill:#cfe2f3;stroke-width:3;stroke:#674ea7" filter="url(#sh)"/><polygon points="307,368 298,365 298,371" transform="rotate(-54.5 307 368)"/><line x1="213" y1="500" x2="307" y2="368" style="stroke:#000000;stroke-width:1"/><rect x="280" y="30" width="160" height="90" style="fill:#cfe2f3;stroke-width:3;stroke:#38761d" filter="url(#sh)"/><polygon points="280,75 271,72 271,78" transform="rotate(-78.7 280 75)"/><line x1="240" y1="275" x2="280" y2="75" style="stroke:#000000;stroke-width:1"/><rect x="525" y="589" width="70" height="40" style="fill:#cfe2f3;stroke-width:3;stroke:#000000" filter="url(#sh)"/><polygon points="525,609 516,606 516,612" transform="rotate(-7.6 525 609)"/><line x1="195" y1="653" x2="525" y2="609" style="stroke:#000000;stroke-width:1"/><rect x="507" y="404" width="106" height="60" style="fill:#cfe2f3;stroke-width:3;stroke:#674ea7" filter="url(#sh)"/><polygon points="507,434 498,431 498,437" transform="rotate(-12.7 507 434)"/><line x1="213" y1="500" x2="507" y2="434" style="stroke:#000000;stroke-width:1"/><rect x="480" y="130" width="160" height="90" style="fill:#cfe2f3;stroke-width:3;stroke:#38761d" filter="url(#sh)"/><polygon points="480,175 471,172 471,178" transform="rotate(-22.6 480 175)"/><line x1="240" y1="275" x2="480" y2="175" style="stroke:#000000;stroke-width:1"/><rect x="725" y="545" width="70" height="40" style="fill:#cfe2f3;stroke-width:3;stroke:#000000" filter="url(#sh)"/><polygon points="725,565 716,562 716,568" transform="rotate(-18.7 725 565)"/><line x1="595" y1="609" x2="725" y2="565" style="stroke:#000000;stroke-width:1"/><rect x="707" y="338" width="106" height="60" style="fill:#cfe2f3;stroke-width:3;stroke:#674ea7" filter="url(#sh)"/><polygon points="707,368 698,365 698,371" transform="rotate(-35.1 707 368)"/><line x1="613" y1="434" x2="707" y2="368" style="stroke:#000000;stroke-width:1"/><rect x="680" y="30" width="160" height="90" style="fill:#cfe2f3;stroke-width:3;stroke:#38761d" filter="url(#sh)"/><polygon points="680,75 671,72 671,78" transform="rotate(-68.2 680 75)"/><line x1="640" y1="175" x2="680" y2="75" style="stroke:#000000;stroke-width:1"/><rect x="925" y="633" width="70" height="40" style="fill:#cfe2f3;stroke-width:3;stroke:#000000" filter="url(#sh)"/><polygon points="925,653 916,650 916,656"/><line x1="195" y1="653" x2="925" y2="653" style="stroke:#000000;stroke-width:1"/><rect x="907" y="470" width="106" height="60" style="fill:#cfe2f3;stroke-width:3;stroke:#674ea7" filter="url(#sh)"/><polygon points="907,500 898,497 898,503"/><line x1="213" y1="500" x2="907" y2="500" style="stroke:#000000;stroke-width:1"/><rect x="880" y="230" width="160" height="90" style="fill:#cfe2f3;stroke-width:3;stroke:#38761d" filter="url(#sh)"/><polygon points="880,275 871,272 871,278"/><line x1="240" y1="275" x2="880" y2="275" style="stroke:#000000;stroke-width:1"/><rect x="1125" y="545" width="70" height="40" style="fill:#cfe2f3;stroke-width:3;stroke:#000000" filter="url(#sh)"/><polygon points="1125,565 1116,562 1116,568" transform="rotate(-34.1 1125 565)"/><line x1="995" y1="653" x2="1125" y2="565" style="stroke:#000000;stroke-width:1"/><rect x="1107" y="338" width="106" height="60" style="fill:#cfe2f3;stroke-width:3;stroke:#674ea7" filter="url(#sh)"/><polygon points="1107,368 1098,365 1098,371" transform="rotate(-54.5 1107 368)"/><line x1="1013" y1="500" x2="1107" y2="368" style="stroke:#000000;stroke-width:1"/><rect x="1080" y="30" width="160" height="90" style="fill:#cfe2f3;stroke-width:3;stroke:#38761d" filter="url(#sh)"/><polygon points="1080,75 1071,72 1071,78" transform="rotate(-78.7 1080 75)"/><line x1="1040" y1="275" x2="1080" y2="75" style="stroke:#000000;stroke-width:1"/><rect x="1325" y="589" width="70" height="40" style="fill:#cfe2f3;stroke-width:3;stroke:#000000" filter="url(#sh)"/><polygon points="1325,609 1316,606 1316,612" transform="rotate(-7.6 1325 609)"/><line x1="995" y1="653" x2="1325" y2="609" style="stroke:#000000;stroke-width:1"/><rect x="1307" y="404" width="106" height="60" style="fill:#cfe2f3;stroke-width:3;stroke:#674ea7" filter="url(#sh)"/><polygon points="1307,434 1298,431 1298,437" transform="rotate(-12.7 1307 434)"/><line x1="1013" y1="500" x2="1307" y2="434" style="stroke:#000000;stroke-width:1"/><rect x="1280" y="130" width="160" height="90" style="fill:#cfe2f3;stroke-width:3;stroke:#38761d" filter="url(#sh)"/><polygon points="1280,175 1271,172 1271,178" transform="rotate(-22.6 1280 175)"/><line x1="1040" y1="275" x2="1280" y2="175" style="stroke:#000000;stroke-width:1"/><rect x="1525" y="545" width="70" height="40" style="fill:#cfe2f3;stroke-width:3;stroke:#000000" filter="url(#sh)"/><polygon points="1525,565 1516,562 1516,568" transform="rotate(-18.7 1525 565)"/><line x1="1395" y1="609" x2="1525" y2="565" style="stroke:#000000;stroke-width:1"/><rect x="1507" y="338" width="106" height="60" style="fill:#cfe2f3;stroke-width:3;stroke:#674ea7" filter="url(#sh)"/><polygon points="1507,368 1498,365 1498,371" transform="rotate(-35.1 1507 368)"/><line x1="1413" y1="434" x2="1507" y2="368" style="stroke:#000000;stroke-width:1"/><rect x="1480" y="30" width="160" height="90" style="fill:#cfe2f3;stroke-width:3;stroke:#38761d" filter="url(#sh)"/><polygon points="1480,75 1471,72 1471,78" transform="rotate(-68.2 1480 75)"/><line x1="1440" y1="175" x2="1480" y2="75" style="stroke:#000000;stroke-width:1"/><polygon points="1665,653 1656,650 1656,656"/><line x1="995" y1="653" x2="1665" y2="653" style="stroke:#000000;stroke-width:1;stroke-dasharray:5,5"/><polygon points="1665,500 1656,497 1656,503"/><line x1="1013" y1="500" x2="1665" y2="500" style="stroke:#000000;stroke-width:1;stroke-dasharray:5,5"/><polygon points="1665,275 1656,272 1656,278"/><line x1="1040" y1="275" x2="1665" y2="275" style="stroke:#000000;stroke-width:1;stroke-dasharray:5,5"/><rect x="860" y="0" width="790" height="685" style="fill:none;stroke-width:2;stroke:#7f7f7f;stroke-dasharray:5,5"/><text x="862" y="22" font-family="Arial" font-size="20">Repeat</text></svg>